<?xml version="1.0" standalone="no"?>
<!DOCTYPE svg PUBLIC "-//W3C//DTD SVG 20010904//EN"
 "http://www.w3.org/TR/2001/REC-SVG-20010904/DTD/svg10.dtd">
<svg version="1.0" xmlns="http://www.w3.org/2000/svg"
 width="900.000000pt" height="900.000000pt" viewBox="0 0 900.000000 900.000000"
 preserveAspectRatio="xMidYMid meet">
<metadata>
Created by potrace 1.10, written by Peter Selinger 2001-2011
</metadata>
<g transform="translate(0.000000,900.000000) scale(0.100000,-0.100000)"
fill="#ffffff" stroke="none">
<path d="M4330 8160 c-244 -72 -414 -263 -450 -507 -16 -115 -13 -3474 3
-3578 16 -93 66 -207 126 -283 103 -130 310 -231 474 -232 117 0 278 53 372
123 121 90 216 241 241 385 20 114 20 3503 -1 3607 -27 141 -73 226 -179 330
-75 74 -169 128 -277 159 -77 22 -225 20 -309 -4z"/>
<path d="M2295 6965 c-22 -8 -46 -15 -53 -15 -7 0 -43 -15 -79 -32 -211 -103
-623 -624 -825 -1043 -58 -120 -109 -233 -119 -265 -4 -14 -17 -50 -29 -80
-46 -121 -102 -311 -133 -455 -58 -262 -77 -459 -77 -770 0 -268 7 -359 46
-590 34 -200 99 -446 164 -615 12 -30 25 -66 30 -80 28 -87 152 -340 233 -480
83 -142 228 -352 303 -440 198 -232 461 -486 614 -592 14 -10 59 -42 100 -72
166 -122 415 -260 621 -346 68 -28 138 -57 154 -64 42 -18 95 -36 130 -46 17
-4 41 -12 55 -17 79 -32 308 -86 495 -118 362 -61 774 -61 1130 0 182 32 289
56 460 107 95 28 118 36 210 71 213 81 467 204 593 288 24 16 45 29 47 29 5 0
158 102 165 110 3 3 30 23 60 45 30 22 57 42 60 45 3 3 41 34 85 70 119 96
327 299 421 411 109 129 126 152 242 314 95 133 283 483 344 640 55 140 95
253 108 300 4 17 18 66 30 110 13 44 26 98 30 120 4 22 12 60 18 85 52 212 67
378 67 720 0 357 -11 478 -71 755 -26 121 -68 279 -87 325 -5 14 -13 39 -17
55 -5 17 -18 55 -30 85 -12 30 -25 66 -29 80 -14 42 -169 369 -200 420 -6 8
-40 65 -76 125 -69 113 -159 246 -208 306 -15 19 -55 68 -89 109 -34 41 -116
129 -182 195 -131 130 -186 165 -317 199 -78 21 -243 17 -326 -7 -196 -58
-350 -214 -417 -423 -26 -78 -23 -271 5 -349 44 -128 76 -175 203 -312 125
-134 222 -264 309 -413 83 -143 188 -390 217 -510 16 -65 32 -125 41 -156 5
-17 13 -64 19 -105 5 -41 14 -105 19 -144 16 -104 13 -371 -4 -498 -33 -240
-71 -387 -155 -597 -249 -619 -788 -1115 -1425 -1310 -247 -76 -438 -105 -685
-105 -321 0 -597 57 -915 189 -96 40 -251 125 -360 199 -490 329 -835 844
-958 1427 -45 209 -63 562 -37 703 6 31 15 89 20 129 13 97 47 240 81 338 124
361 278 615 541 895 98 105 125 149 169 277 27 81 27 271 0 348 -42 118 -70
167 -137 240 -126 135 -276 200 -460 200 -60 -1 -115 -7 -139 -15z"/>
</g>
</svg>
